<svg width="50" height="50" viewBox="0 0 50 50" fill="none" xmlns="http://www.w3.org/2000/svg">
<rect width="50" height="50" rx="6" fill="white" fill-opacity="0.1"/>
<rect x="0.5" y="0.5" width="49" height="49" rx="5.5" stroke="white" stroke-opacity="0.27"/>
<path d="M27.6486 17.3032V22.2204C27.6483 22.2954 27.666 22.3693 27.7002 22.436L33.1471 32.7485C33.2601 32.9627 33.3159 33.2025 33.309 33.4446C33.3022 33.6866 33.2329 33.9229 33.108 34.1303C32.983 34.3378 32.8066 34.5094 32.5959 34.6287C32.3851 34.748 32.1471 34.8108 31.9049 34.811H18.0955C17.847 34.8107 17.603 34.7444 17.3884 34.6191C17.1738 34.4938 16.9963 34.3138 16.8739 34.0975C16.7515 33.8813 16.6885 33.6364 16.6915 33.3879C16.6945 33.1394 16.7633 32.8962 16.8908 32.6829L23.0174 22.4454C23.0603 22.3731 23.083 22.2905 23.083 22.2063V17.3032" stroke="#FFC107" stroke-linecap="round"/>
<path d="M23.0828 17.3032H22.1172C21.8375 17.3032 21.5692 17.1921 21.3714 16.9943C21.1736 16.7965 21.0625 16.5283 21.0625 16.2485C21.0625 15.9688 21.1736 15.7006 21.3714 15.5028C21.5692 15.305 21.8375 15.1938 22.1172 15.1938H28.525C28.8047 15.1938 29.073 15.305 29.2708 15.5028C29.4686 15.7006 29.5797 15.9688 29.5797 16.2485C29.5797 16.5283 29.4686 16.7965 29.2708 16.9943C29.073 17.1921 28.8047 17.3032 28.525 17.3032H27.6484" stroke="#FFC107" stroke-linecap="round"/>
<path d="M21.3164 26.286C22.2073 26.045 23.1143 25.868 24.0305 25.7563C24.743 25.7563 26.0836 26.661 26.843 26.7548C27.4477 26.8345 29.2336 26.286 29.2336 26.286" stroke="#FFC107" stroke-linecap="round"/>
<path d="M27.9486 32.969C28.9143 32.969 29.6971 32.1862 29.6971 31.2206C29.6971 30.255 28.9143 29.4722 27.9486 29.4722C26.983 29.4722 26.2002 30.255 26.2002 31.2206C26.2002 32.1862 26.983 32.969 27.9486 32.969Z" stroke="#FFC107" stroke-linecap="round"/>
<path d="M23.6641 29.6221C24.4019 29.6221 25 29.024 25 28.2861C25 27.5483 24.4019 26.9502 23.6641 26.9502C22.9262 26.9502 22.3281 27.5483 22.3281 28.2861C22.3281 29.024 22.9262 29.6221 23.6641 29.6221Z" stroke="#FFC107" stroke-linecap="round"/>
</svg>
