<svg width="50" height="50" viewBox="0 0 50 50" fill="none" xmlns="http://www.w3.org/2000/svg">
<rect width="50" height="50" rx="6" fill="white" fill-opacity="0.1"/>
<rect x="0.5" y="0.5" width="49" height="49" rx="5.5" stroke="white" stroke-opacity="0.27"/>
<path d="M12.5 27.5C12.5 22.786 12.5 20.4289 13.9645 18.9645C15.4289 17.5 17.786 17.5 22.5 17.5H27.5C32.214 17.5 34.5711 17.5 36.0355 18.9645C37.5 20.4289 37.5 22.786 37.5 27.5C37.5 32.214 37.5 34.5711 36.0355 36.0355C34.5711 37.5 32.214 37.5 27.5 37.5H22.5C17.786 37.5 15.4289 37.5 13.9645 36.0355C12.5 34.5711 12.5 32.214 12.5 27.5Z" stroke="#FFC107" stroke-width="2"/>
<path opacity="0.5" d="M30 17.5C30 15.143 30 13.9645 29.2677 13.2322C28.5355 12.5 27.357 12.5 25 12.5C22.643 12.5 21.4645 12.5 20.7322 13.2322C20 13.9645 20 15.143 20 17.5" stroke="#FFC107" stroke-width="2"/>
<path d="M26.875 27.5H23.125M25 25.625V29.375" stroke="#FFC107" stroke-width="2" stroke-linecap="round"/>
<path opacity="0.5" d="M25 32.5C27.7614 32.5 30 30.2614 30 27.5C30 24.7386 27.7614 22.5 25 22.5C22.2386 22.5 20 24.7386 20 27.5C20 30.2614 22.2386 32.5 25 32.5Z" stroke="#FFC107" stroke-width="2"/>
</svg>
