<svg width="50" height="50" viewBox="0 0 50 50" fill="none" xmlns="http://www.w3.org/2000/svg">
<rect width="50" height="50" rx="6" fill="white" fill-opacity="0.1"/>
<rect x="0.5" y="0.5" width="49" height="49" rx="5.5" stroke="white" stroke-opacity="0.27"/>
<path d="M24.9999 28.6002V31.0002M24.9999 20.2002V17.8002M24.9999 17.8002C25.994 17.8002 26.7999 16.9943 26.7999 16.0002C26.7999 15.0061 25.994 14.2002 24.9999 14.2002C24.0058 14.2002 23.1999 15.0061 23.1999 16.0002C23.1999 16.9943 24.0058 17.8002 24.9999 17.8002ZM34.5999 34.6002V33.4002C34.5999 32.0747 33.5254 31.0002 32.1999 31.0002H17.7999C16.4744 31.0002 15.3999 32.0747 15.3999 33.4002V34.6002H34.5999ZM23.7999 24.4002C23.7999 25.063 23.2627 25.6002 22.5999 25.6002C21.9372 25.6002 21.3999 25.063 21.3999 24.4002C21.3999 23.7374 21.9372 23.2002 22.5999 23.2002C23.2627 23.2002 23.7999 23.7374 23.7999 24.4002ZM28.5999 24.4002C28.5999 25.063 28.0627 25.6002 27.3999 25.6002C26.7371 25.6002 26.1999 25.063 26.1999 24.4002C26.1999 23.7374 26.7371 23.2002 27.3999 23.2002C28.0627 23.2002 28.5999 23.7374 28.5999 24.4002ZM20.1999 28.6002H29.7999C31.1254 28.6002 32.1999 27.5257 32.1999 26.2002V22.6002C32.1999 21.2747 31.1254 20.2002 29.7999 20.2002H20.1999C18.8744 20.2002 17.7999 21.2747 17.7999 22.6002V26.2002C17.7999 27.5257 18.8744 28.6002 20.1999 28.6002Z" stroke="#FFC107" stroke-width="1.07"/>
</svg>
