<svg width="50" height="50" viewBox="0 0 50 50" fill="none" xmlns="http://www.w3.org/2000/svg">
<rect width="50" height="50" rx="6" fill="white" fill-opacity="0.1"/>
<rect x="0.5" y="0.5" width="49" height="49" rx="5.5" stroke="white" stroke-opacity="0.27"/>
<path fill-rule="evenodd" clip-rule="evenodd" d="M24.9295 11.5625H25.0705C27.3678 11.5625 29.1873 11.5625 30.6113 11.7539C32.0768 11.951 33.263 12.3661 34.1985 13.3016C35.1339 14.237 35.549 15.4232 35.7461 16.8887C35.8745 17.8438 35.9168 18.9768 35.9306 20.3125H36.25C37.4581 20.3125 38.4375 21.2919 38.4375 22.5V23.75C38.4375 24.4385 38.1134 25.0869 37.5625 25.5L35.9344 26.721C35.9253 28.2616 35.8891 29.5469 35.7461 30.6113C35.549 32.0768 35.1339 33.263 34.1985 34.1985C33.9611 34.4358 33.7076 34.6396 33.4375 34.815V36.25C33.4375 37.4581 32.4581 38.4375 31.25 38.4375H29.375C28.1669 38.4375 27.1875 37.4581 27.1875 36.25V35.9306C26.5316 35.9375 25.827 35.9375 25.0705 35.9375H24.9295C24.173 35.9375 23.4684 35.9375 22.8125 35.9306V36.25C22.8125 37.4581 21.8331 38.4375 20.625 38.4375H18.75C17.5419 38.4375 16.5625 37.4581 16.5625 36.25V34.815C16.2924 34.6396 16.0389 34.4358 15.8016 34.1985C14.8661 33.263 14.451 32.0768 14.2539 30.6113C14.1108 29.5469 14.0747 28.2616 14.0656 26.721L12.4375 25.5C11.8867 25.0869 11.5625 24.4385 11.5625 23.75V22.5C11.5625 21.2919 12.5419 20.3125 13.75 20.3125H14.0693C14.0832 18.9768 14.1255 17.8438 14.2539 16.8887C14.451 15.4232 14.8661 14.237 15.8016 13.3016C16.737 12.3661 17.9232 11.951 19.3887 11.7539C20.8127 11.5625 22.6323 11.5625 24.9295 11.5625ZM14.0625 22.1875H13.75C13.5774 22.1875 13.4375 22.3274 13.4375 22.5V23.75C13.4375 23.8484 13.4838 23.941 13.5625 24L14.0625 24.375V22.4295C14.0625 22.3482 14.0625 22.2676 14.0625 22.1875ZM15.9447 27.1875C15.9583 28.4795 15.9978 29.5103 16.1122 30.3615C16.2813 31.619 16.5984 32.3436 17.1274 32.8726C17.6564 33.4016 18.381 33.7188 19.6386 33.8878C20.9231 34.0605 22.6165 34.0625 25 34.0625C27.3835 34.0625 29.0769 34.0605 30.3615 33.8878C31.619 33.7188 32.3436 33.4016 32.8726 32.8726C33.4016 32.3436 33.7188 31.619 33.8878 30.3615C34.0023 29.5103 34.0418 28.4795 34.0554 27.1875H15.9447ZM34.0625 25.3125H15.9375C15.9375 25.2096 15.9375 25.1055 15.9375 25V22.5C15.9375 20.1466 15.9394 18.4661 16.1057 17.1875H33.8943C34.0605 18.4661 34.0625 20.1466 34.0625 22.5V25C34.0625 25.1055 34.0625 25.2096 34.0625 25.3125ZM35.9375 24.375L36.4375 24C36.5163 23.941 36.5625 23.8484 36.5625 23.75V22.5C36.5625 22.3274 36.4226 22.1875 36.25 22.1875H35.9375C35.9375 22.2676 35.9375 22.3482 35.9375 22.4295V24.375ZM33.3763 15.3125C33.2353 15.0459 33.0685 14.8232 32.8726 14.6274C32.3436 14.0984 31.619 13.7813 30.3615 13.6122C29.0769 13.4395 27.3835 13.4375 25 13.4375C22.6165 13.4375 20.9231 13.4395 19.6386 13.6122C18.381 13.7813 17.6564 14.0984 17.1274 14.6274C16.9315 14.8232 16.7647 15.0459 16.6237 15.3125H33.3763ZM18.4375 35.5756V36.25C18.4375 36.4226 18.5774 36.5625 18.75 36.5625H20.625C20.7976 36.5625 20.9375 36.4226 20.9375 36.25V35.8803C20.3758 35.8519 19.8606 35.8095 19.3887 35.7461C19.0575 35.7015 18.7405 35.6459 18.4375 35.5756ZM29.0625 35.8803V36.25C29.0625 36.4226 29.2024 36.5625 29.375 36.5625H31.25C31.4226 36.5625 31.5625 36.4226 31.5625 36.25V35.5756C31.2595 35.6459 30.9425 35.7015 30.6113 35.7461C30.1395 35.8095 29.6241 35.8519 29.0625 35.8803ZM17.8125 30C17.8125 29.4823 18.2322 29.0625 18.75 29.0625H20.625C21.1428 29.0625 21.5625 29.4823 21.5625 30C21.5625 30.5178 21.1428 30.9375 20.625 30.9375H18.75C18.2322 30.9375 17.8125 30.5178 17.8125 30ZM28.4375 30C28.4375 29.4823 28.8573 29.0625 29.375 29.0625H31.25C31.7678 29.0625 32.1875 29.4823 32.1875 30C32.1875 30.5178 31.7678 30.9375 31.25 30.9375H29.375C28.8573 30.9375 28.4375 30.5178 28.4375 30Z" fill="#FFC107"/>
</svg>
