<svg width="86" height="86" viewBox="0 0 86 86" fill="none" xmlns="http://www.w3.org/2000/svg">
<rect x="0.628458" y="21.0204" width="67" height="67" rx="9.5" transform="rotate(-17.7195 0.628458 21.0204)" fill="white" fill-opacity="0.1"/>
<rect x="0.628458" y="21.0204" width="67" height="67" rx="9.5" transform="rotate(-17.7195 0.628458 21.0204)" stroke="#FF2D55"/>
<g clip-path="url(#clip0_378_273)">
<path d="M65.1484 53.1012L30.4848 64.1768C30.0614 64.3121 29.6083 64.0785 29.473 63.655C29.3377 63.2315 29.5714 62.7785 29.9948 62.6432L64.6584 51.5676C65.0819 51.4323 65.5349 51.6659 65.6702 52.0894C65.8055 52.5129 65.5719 52.9659 65.1484 53.1012ZM62.6254 50.0555C62.2019 50.1909 61.7489 49.9572 61.6136 49.5337L56.1993 32.5886L37.1054 38.6894C36.6819 38.8247 36.2289 38.5911 36.0936 38.1676C35.9583 37.7442 36.1919 37.2911 36.6154 37.1558L56.4762 30.81C56.8997 30.6747 57.3527 30.9083 57.488 31.3318L63.1472 49.0436C63.2825 49.4672 63.0489 49.9202 62.6254 50.0555ZM35.9923 58.5652C35.5688 58.7005 35.1158 58.4669 34.9805 58.0434L30.9663 45.4802C30.831 45.0568 31.0647 44.6037 31.4881 44.4684C31.9116 44.3331 32.3646 44.5668 32.5 44.9902L36.5141 57.5533C36.6494 57.9769 36.4158 58.4299 35.9923 58.5652ZM58.8797 49.5701L55.7565 50.568C55.333 50.7033 54.88 50.4697 54.7447 50.0462L53.3196 45.5861C53.1843 45.1626 53.4179 44.7096 53.8414 44.5742L56.9646 43.5763C57.3881 43.441 57.8411 43.6747 57.9764 44.0981L59.4015 48.5583C59.5368 48.9818 59.3032 49.4348 58.8797 49.5701ZM56.0333 48.7894L57.6229 48.2815L56.6878 45.355L55.0982 45.8629L56.0333 48.7894ZM52.6209 51.5699L49.4977 52.5678C49.0742 52.7031 48.6212 52.4695 48.4859 52.046L47.0608 47.5858C46.9255 47.1624 47.1591 46.7093 47.5826 46.574L50.7058 45.5761C51.1293 45.4408 51.5823 45.6744 51.7176 46.0979L53.1427 50.5581C53.278 50.9816 53.0444 51.4346 52.6209 51.5699ZM49.7745 50.7892L51.3641 50.2813L50.429 47.3547L48.8394 47.8626L49.7745 50.7892ZM46.362 53.5697L43.2387 54.5676C42.8152 54.7029 42.3622 54.4693 42.2269 54.0458L40.8018 49.5857C40.6665 49.1622 40.9001 48.7092 41.3236 48.5739L44.4469 47.5759C44.8704 47.4406 45.3234 47.6743 45.4587 48.0977L46.8838 52.5579C47.0191 52.9814 46.7855 53.4344 46.362 53.5697ZM43.5155 52.789L45.1052 52.2811L44.1701 49.3546L42.5804 49.8625L43.5155 52.789ZM31.1029 54.9613C30.8532 55.0411 30.5694 54.9975 30.3505 54.8202C29.641 54.2454 29.1055 53.4966 28.7922 52.6443C26.9682 52.3133 25.4254 50.9869 24.856 49.205C24.2867 47.4231 24.7746 45.4479 26.0686 44.1205C25.3591 41.5234 26.8225 38.7955 29.4113 37.9684C31.9999 37.1413 34.7738 38.5152 35.7017 41.0425C37.5258 41.3735 39.0686 42.6999 39.6379 44.4818C40.2073 46.2637 39.7193 48.239 38.4251 49.5663C38.6629 50.4381 38.6619 51.3547 38.4204 52.2308C38.3023 52.6594 37.8591 52.9112 37.4305 52.793C37.0019 52.6749 36.7502 52.2318 36.8683 51.8032C37.0459 51.1585 37.0326 50.4822 36.8296 49.8471C36.8064 49.7743 36.78 49.7011 36.7491 49.6233C36.6195 49.297 36.7163 48.9242 36.9884 48.7023C38.0834 47.8091 38.5319 46.3099 38.1043 44.9718C37.6768 43.6337 36.4421 42.6722 35.0321 42.5795C34.6817 42.5564 34.3866 42.309 34.3031 41.9679C34.2831 41.8866 34.2622 41.8116 34.2389 41.7389C33.6597 39.9262 31.7139 38.9227 29.9014 39.5019C28.0887 40.081 27.0851 42.0269 27.6643 43.8396C27.6877 43.9129 27.7147 43.9881 27.7446 44.063C27.8744 44.3894 27.7776 44.7623 27.5054 44.9844C26.4104 45.8777 25.9621 47.3768 26.3896 48.7149C26.8172 50.0532 28.0518 51.0146 29.4618 51.1073C29.8121 51.1303 30.1072 51.3778 30.1907 51.7189C30.2107 51.8002 30.2317 51.8752 30.2549 51.9479C30.4588 52.5859 30.8423 53.1465 31.364 53.5692C31.7095 53.849 31.7626 54.356 31.4828 54.7015C31.3802 54.8279 31.2473 54.9152 31.1029 54.9613ZM56.3171 41.5499L53.1939 42.5478C52.7704 42.6831 52.3174 42.4494 52.1821 42.026L50.757 37.5658C50.6217 37.1424 50.8553 36.6893 51.2788 36.554L54.402 35.5561C54.8255 35.4208 55.2785 35.6544 55.4138 36.0779L56.8389 40.538C56.9742 40.9615 56.7406 41.4145 56.3171 41.5499ZM53.4707 40.7691L55.0603 40.2612L54.1252 37.3347L52.5356 37.8426L53.4707 40.7691ZM50.0583 43.5496L46.9351 44.5475C46.5116 44.6829 46.0586 44.4492 45.9233 44.0257L44.4982 39.5656C44.3629 39.1421 44.5965 38.6891 45.02 38.5538L48.1432 37.5559C48.5667 37.4206 49.0197 37.6542 49.155 38.0777L50.5801 42.5378C50.7154 42.9613 50.4818 43.4143 50.0583 43.5496ZM47.2119 42.7689L48.8015 42.261L47.8664 39.3345L46.2768 39.8424L47.2119 42.7689ZM43.7994 45.5494L42.347 46.0135C41.9235 46.1488 41.4705 45.9152 41.3352 45.4917C41.1999 45.0683 41.4335 44.6152 41.857 44.4799L42.5426 44.2608L41.6075 41.3343L40.9219 41.5534C40.4984 41.6887 40.0454 41.455 39.9101 41.0316C39.7748 40.6081 40.0084 40.1551 40.4319 40.0198L41.8843 39.5557C42.3078 39.4204 42.7608 39.654 42.8961 40.0775L44.3212 44.5376C44.4565 44.9611 44.2229 45.4141 43.7994 45.5494ZM53.7824 30.1453C53.359 30.2806 52.9059 30.0469 52.7706 29.6235L51.051 24.2415L40.152 27.7239L41.8716 33.1059C42.0069 33.5294 41.7733 33.9824 41.3498 34.1177C40.9263 34.253 40.4733 34.0194 40.338 33.5959L38.3733 27.4472C38.238 27.0237 38.4717 26.5706 38.8951 26.4353L51.3278 22.4629C51.7513 22.3276 52.2043 22.5612 52.3396 22.9847L54.3042 29.1335C54.4396 29.557 54.206 30.0099 53.7824 30.1453ZM50.1937 29.9163C49.7702 30.0516 49.3172 29.818 49.1819 29.3945L48.7055 27.9035C48.5702 27.48 48.8038 27.027 49.2273 26.8917C49.6507 26.7564 50.1038 26.99 50.2391 27.4135L50.7155 28.9044C50.8508 29.328 50.6172 29.781 50.1937 29.9163ZM47.1672 30.8833C46.7437 31.0187 46.2907 30.785 46.1554 30.3615L45.679 28.8705C45.5437 28.447 45.7773 27.994 46.2008 27.8587C46.6242 27.7234 47.0773 27.957 47.2126 28.3805L47.689 29.8714C47.8243 30.295 47.5907 30.748 47.1672 30.8833ZM44.141 31.8503C43.7175 31.9856 43.2645 31.7519 43.1292 31.3285L42.6528 29.8374C42.5175 29.4139 42.7511 28.9609 43.1746 28.8256C43.598 28.6903 44.0511 28.9239 44.1864 29.3474L44.6628 30.8384C44.7981 31.2619 44.5645 31.715 44.141 31.8503Z" fill="#EEEEEE"/>
</g>
<defs>
<clipPath id="clip0_378_273">
<rect width="38" height="38" fill="white" transform="translate(18.8538 30.4195) rotate(-17.7195)"/>
</clipPath>
</defs>
</svg>
