<svg width="96" height="96" viewBox="0 0 96 96" fill="none" xmlns="http://www.w3.org/2000/svg">
<rect x="0.698805" y="54.7572" width="67" height="67" rx="9.5" transform="rotate(-53.7884 0.698805 54.7572)" fill="white" fill-opacity="0.1"/>
<rect x="0.698805" y="54.7572" width="67" height="67" rx="9.5" transform="rotate(-53.7884 0.698805 54.7572)" stroke="#FF8D28"/>
<path d="M55.9731 36.6467L56.0957 36.5222L56.0973 36.5234L56.0985 36.5218L57.0749 37.4909C56.8367 37.4469 56.5912 37.4237 56.3399 37.4284C55.8065 37.4386 55.3028 37.564 54.8505 37.7782L55.9731 36.6467Z" stroke="#EEEEEE" stroke-width="2"/>
<path d="M44.875 43.572C45.6024 42.5786 46.9975 42.3629 47.991 43.0903C48.9843 43.8177 49.2 45.2128 48.4727 46.2062C47.7453 47.1997 46.3502 47.4153 45.3567 46.688C44.3633 45.9606 44.1476 44.5654 44.875 43.572Z" stroke="#EEEEEE" stroke-width="2"/>
<path d="M55.9759 41.0859C55.9719 40.8764 56.1171 40.6984 56.3138 40.6542L56.401 40.6442C56.6404 40.6396 56.838 40.83 56.8426 41.0693L56.9363 45.9599L56.9361 45.9634L56.9373 46.0296C56.9391 46.1358 56.9037 46.2356 56.8374 46.3148L56.7605 46.3868L56.7518 46.3937L52.4825 49.6475L53.4584 51.3727L57.8467 49.6294L59.0088 50.2358L59.92 50.7105L60.3705 49.7877L62.2328 45.9698L62.2342 45.9696C62.2765 45.8831 62.3348 45.8054 62.4066 45.7424L68.0904 40.7635C68.3894 40.5015 68.8453 40.5311 69.1076 40.8305C69.3691 41.1291 69.3397 41.5842 69.0398 41.8472L63.6163 46.5979L63.4612 46.7336L63.3733 46.9198L59.7596 54.5001C59.5944 54.831 59.3059 55.084 58.9549 55.2024C58.6019 55.3213 58.216 55.294 57.8827 55.1278L50.5969 51.4937C50.2624 51.3268 50.0084 51.0333 49.8916 50.6783C49.7748 50.3231 49.8046 49.9356 49.9747 49.6026L49.9734 49.6029L50.4661 48.6407L51.2748 49.4785L54.4683 47.0444L55.6628 46.1337L56.0659 45.8262L56.056 45.319L55.9759 41.0859Z" stroke="#EEEEEE" stroke-width="2"/>
<path d="M39.3372 51.3763C39.3729 51.9657 39.3154 52.5586 39.1593 53.1318L38.9749 53.8101L39.676 53.7618L42.2503 53.5867L43.6159 53.4937L39.2737 50.3143L39.3372 51.3763ZM38.0473 41.7403C38.048 42.6082 37.8917 43.4873 37.5724 44.3313L37.438 44.6867L40.9695 47.2725L40.7894 46.0852L40.0894 41.4441L40.0023 40.8721L39.4492 41.0407C39.1331 41.137 38.8119 41.2056 38.4897 41.2436L38.0471 41.2959L38.0473 41.7403ZM44.4512 54.1052L44.2692 54.1173L38.8157 54.4887L38.5724 54.5054L38.4352 54.7076C38.3916 54.7723 38.3545 54.8277 38.3159 54.8804C36.8617 56.8664 34.2712 57.5653 31.9906 56.745L31.5423 56.5838L31.36 57.0228C31.2461 57.2966 31.1012 57.5592 30.9266 57.8081L21.1815 50.6727L35.1263 31.6277C35.5254 31.0826 36.0944 30.692 36.7462 30.5178L36.747 30.5183C38.2691 30.1116 39.9288 30.3642 41.2701 31.3465C43.6547 33.0927 44.1514 36.5079 42.3407 38.981C41.9305 39.5412 41.437 40.0024 40.8926 40.362L40.6263 40.5373L40.6739 40.8542L41.6964 47.622L41.7269 47.8283L59.9565 61.176L57.9153 63.9637L44.4512 54.1052Z" stroke="#EEEEEE"/>
</svg>
