<svg width="97" height="97" viewBox="0 0 97 97" fill="none" xmlns="http://www.w3.org/2000/svg">
<g clip-path="url(#clip0_378_280)">
<rect x="49.6825" width="68" height="68" rx="10" transform="rotate(46.9388 49.6825 0)" fill="white" fill-opacity="0.1"/>
<g clip-path="url(#clip1_378_280)">
<path d="M68.6854 52.668C68.7161 51.7687 68.4011 50.8505 67.7367 50.1406L57.1727 38.8362L46.608 27.5312C45.9448 26.8206 45.0503 26.4444 44.1505 26.4137C43.2498 26.3828 42.3322 26.698 41.6224 27.3626L27.2674 40.7775C26.5563 41.4408 26.1789 42.3357 26.1506 43.2348C26.1195 44.1354 26.4343 45.0534 27.098 45.7636L37.6627 57.0686L48.2267 68.3729C48.8906 69.0833 49.7854 69.4597 50.6855 69.489C51.5845 69.5216 52.5031 69.2058 53.2129 68.5412L67.5679 55.1263C68.279 54.4631 68.6554 53.5687 68.6854 52.668ZM31.9412 38.0966C33.3152 38.9285 36.8377 40.9978 36.9267 41.0692C38.069 41.9909 39.7457 41.9543 40.8494 40.9229C41.9531 39.8915 42.1024 38.2216 41.2601 37.0196C41.1953 36.9255 39.368 33.2719 38.6311 31.8449L41.8309 28.8546L42.0748 29.1157C43.7646 30.9239 44.5599 33.2423 44.483 35.5347C44.405 37.8276 43.4547 40.0857 41.6463 41.7757C39.8379 43.4656 37.5198 44.2619 35.2272 44.1843C32.9349 44.106 30.6752 43.1561 28.9854 41.3479L28.7415 41.0869L31.9412 38.0966ZM37.3825 40.6433L40.8044 37.4455C41.4222 38.4018 41.2676 39.6887 40.4287 40.4727C39.5889 41.2575 38.2944 41.3247 37.3825 40.6433ZM44.377 50.2311C43.8418 49.5191 43.5914 48.6682 43.6201 47.8232C43.6534 46.8501 44.0551 45.8938 44.8231 45.1752C45.5907 44.4586 46.5729 44.1218 47.5465 44.1539C48.3911 44.1829 49.223 44.4903 49.8977 45.072L44.377 50.2311ZM50.4999 44.5092C49.6692 43.7639 48.6259 43.3689 47.5741 43.3333C46.3936 43.2931 45.193 43.7048 44.2621 44.5747C43.3304 45.4454 42.8388 46.615 42.7982 47.7965C42.7626 48.8483 43.0875 49.9146 43.7749 50.7939L38.2828 55.9263L27.9988 44.9217C27.5652 44.4576 27.3625 43.8659 27.3817 43.278C27.403 42.6879 27.6435 42.1129 28.1089 41.678L28.141 41.648L28.385 41.909C30.2277 43.8809 32.6997 44.9213 35.199 45.0058C37.6996 45.0901 40.2358 44.2195 42.2078 42.3766C44.1798 40.5337 45.2195 38.0627 45.3042 35.5625C45.3892 33.0627 44.5174 30.5268 42.6748 28.555L42.4308 28.294L42.4639 28.2631C42.9288 27.8286 43.5192 27.6271 44.109 27.6462C44.6972 27.6664 45.2738 27.9086 45.7075 28.3727L55.9914 39.3772L50.4999 44.5091L50.4999 44.5092ZM50.4588 45.6724C50.9936 46.3849 51.2442 47.236 51.2156 48.0801C51.1824 49.0543 50.7792 50.0107 50.0125 50.7281C49.2436 51.4459 48.2628 51.7827 47.2892 51.7494C46.4445 51.7213 45.6124 51.4137 44.9382 50.8316L50.4588 45.6724ZM62.8939 57.8079C61.5195 56.9758 57.9981 54.9057 57.9084 54.8345C56.7658 53.9126 55.0899 53.9489 53.9862 54.9803C52.8825 56.0117 52.7324 57.6818 53.575 58.8841C53.6404 58.9779 55.4666 62.6323 56.2041 64.0597L53.0043 67.0499L52.7603 66.7888C51.0701 64.9802 50.2758 62.662 50.3527 60.3697C50.4305 58.0774 51.381 55.8176 53.1894 54.1277C54.9978 52.4377 57.3158 51.6431 59.6085 51.7201C61.9008 51.7984 64.1595 52.748 65.8505 54.5559L66.0945 54.817L62.8939 57.8079ZM57.4527 55.2603L54.0308 58.4582C53.4127 57.5022 53.5672 56.2153 54.407 55.4305C55.2459 54.6466 56.5403 54.5794 57.4527 55.2603ZM66.6937 54.257L66.4497 53.9959C64.6074 52.0228 62.1358 50.9828 59.6359 50.8984C57.1353 50.8133 54.5998 51.6838 52.6287 53.5276C50.6558 55.3696 49.6154 57.8408 49.5308 60.3418C49.4463 62.8413 50.3168 65.3777 52.1599 67.3499L52.4039 67.611L52.3718 67.641C51.906 68.0755 51.3162 68.2768 50.7266 68.2587C50.1383 68.2375 49.5619 67.9957 49.1276 67.531L38.844 56.5267L44.336 51.3943C45.1663 52.1391 46.2085 52.5356 47.2609 52.5719C48.4425 52.6115 49.6419 52.1992 50.5736 51.3285C51.5045 50.4586 51.9973 49.2895 52.0368 48.1087C52.0718 47.0562 51.748 45.9884 51.061 45.1096L56.5526 39.9777L66.8363 50.982C67.2706 51.4467 67.473 52.0381 67.4539 52.6269C67.4324 53.2159 67.1912 53.7912 66.7267 54.2261L66.6937 54.257Z" fill="#EEEEEE"/>
</g>
</g>
<rect x="49.6586" y="0.706702" width="67" height="67" rx="9.5" transform="rotate(46.9388 49.6586 0.706702)" stroke="#FF383C"/>
<defs>
<clipPath id="clip0_378_280">
<rect x="49.6825" width="68" height="68" rx="10" transform="rotate(46.9388 49.6825 0)" fill="white"/>
</clipPath>
<clipPath id="clip1_378_280">
<rect width="38" height="38" fill="white" transform="translate(48.3266 21.0977) rotate(46.9388)"/>
</clipPath>
</defs>
</svg>
