<svg width="82" height="82" viewBox="0 0 82 82" fill="none" xmlns="http://www.w3.org/2000/svg">
<rect x="0.761371" y="65.7284" width="66.7332" height="66.7332" rx="12.0342" transform="rotate(-76.7887 0.761371 65.7284)" fill="white" fill-opacity="0.1"/>
<rect x="0.761371" y="65.7284" width="66.7332" height="66.7332" rx="12.0342" transform="rotate(-76.7887 0.761371 65.7284)" stroke="#FFC107" stroke-width="1.26676"/>
<g clip-path="url(#clip0_378_252)">
<g clip-path="url(#clip1_378_252)">
<path d="M47.3577 24.1415L26.464 19.2366C25.9433 19.1143 25.422 19.4374 25.2998 19.9582L21.6647 35.4427C21.5424 35.9634 21.8655 36.4847 22.3862 36.6069L42.8964 41.4218L40.776 39.2979C40.6373 39.1589 40.5175 39.0083 40.4154 38.8497L23.7718 34.9425L26.9642 21.3437L45.9721 25.8059L43.8228 34.9615C44.0982 35.0907 44.3562 35.2689 44.5835 35.4966L45.4768 36.3915L48.0793 25.3058C48.2015 24.785 47.8785 24.2638 47.3577 24.1415Z" fill="#EEEEEE"/>
<path d="M39.1139 31.5458C38.8577 31.2241 38.3888 31.1708 38.067 31.4271C37.7452 31.6835 37.692 32.1522 37.9484 32.4741L40.5557 35.7481C40.6245 35.6597 40.6987 35.5744 40.78 35.4932C41.067 35.2066 41.4029 34.9989 41.7606 34.869L39.1139 31.5458Z" fill="#EEEEEE"/>
<path d="M54.0329 33.8755C55.5318 34.2273 57.032 33.2975 57.3839 31.7987C57.7358 30.2999 56.806 28.7996 55.3071 28.4477C53.8083 28.0959 52.308 29.0257 51.9562 30.5245C51.6043 32.0233 52.5341 33.5236 54.0329 33.8755Z" fill="#EEEEEE"/>
<path d="M59.727 39.3788C60.1176 37.6766 59.0523 35.9671 57.352 35.568L56.0379 35.2595C53.965 38.2985 54.7209 37.1904 53.4214 39.0955L54.1641 37.4611C54.2187 37.3409 54.2293 37.2054 54.1938 37.0782L53.8881 35.983L54.5636 35.2332C54.6104 35.1812 54.6263 35.1085 54.6054 35.0418C54.5846 34.975 54.5299 34.9243 54.4619 34.9084L53.1642 34.6037C53.0961 34.5877 53.0247 34.6089 52.9763 34.6593C52.9278 34.7098 52.9097 34.7821 52.9285 34.8494L53.1992 35.8194L52.4396 36.6627C52.3495 36.7627 52.2984 36.8917 52.2955 37.0262L52.2869 38.8292C52.1987 38.1919 51.6581 34.6615 51.5966 34.2169L50.3082 33.9144C48.608 33.5153 46.8933 34.5721 46.4856 36.2703C46.1466 37.6824 46.4305 36.4997 45.8985 38.7159L43.633 36.4467C43.1083 35.9209 42.2566 35.9202 41.7309 36.4451C41.2052 36.97 41.2045 37.8216 41.7293 38.3473L45.6934 42.3179C46.4358 43.0617 47.7082 42.7019 47.9531 41.6815C48.076 41.1698 48.9549 37.5092 49.1015 36.8982C49.1379 36.7472 49.2894 36.6544 49.4404 36.6904C49.5912 36.7263 49.6846 36.8775 49.6491 37.0286C48.1665 43.3383 47.7252 45.0959 44.4535 59.0328C44.2497 59.9006 44.7881 60.7693 45.656 60.973C46.5238 61.1767 47.3925 60.6384 47.5962 59.7705L50.5447 47.2105L51.2231 47.3698L48.2746 59.9298C48.0709 60.7976 48.6092 61.6663 49.4771 61.87C50.3449 62.0738 51.2136 61.5354 51.4173 60.6676L56.5852 38.6565C56.6188 38.5133 56.7619 38.4243 56.9053 38.4575C57.0485 38.4907 57.138 38.6337 57.1051 38.7771L54.895 48.4086C54.7294 49.1304 55.1784 49.8498 55.8985 50.0188C55.9007 50.0193 55.903 50.0199 55.9053 50.0204C56.6292 50.1865 57.351 49.7342 57.5171 49.0103L59.727 39.3788Z" fill="#EEEEEE"/>
</g>
</g>
<defs>
<clipPath id="clip0_378_252">
<rect width="38.0028" height="38.0028" fill="white" transform="translate(25.7227 18.1598) rotate(13.2113)"/>
</clipPath>
<clipPath id="clip1_378_252">
<rect width="38.0028" height="38.0028" fill="white" transform="translate(25.7227 18.1598) rotate(13.2113)"/>
</clipPath>
</defs>
</svg>
